<svg width="18" height="18" viewBox="0 0 18 18" version="1.1" xmlns="http://www.w3.org/2000/svg" xmlns:xlink="http://www.w3.org/1999/xlink">
<g id="Canvas" fill="none">
<g id="add">
<g id="Group">
<g id="Group_2">
<g id="Vector">
<path d="M 17.0231 7.74417L 10.2558 7.74417L 10.2558 0.976745C 10.2558 0.668461 9.83717 0 8.99996 0C 8.16276 0 7.74414 0.668498 7.74414 0.976745L 7.74414 7.74421L 0.976741 7.74421C 0.668495 7.74417 0 8.1628 0 8.99996C 0 9.83713 0.668495 10.2558 0.976741 10.2558L 7.74418 10.2558L 7.74418 17.0233C 7.74418 17.3315 8.16276 18 9 18C 9.83724 18 10.2558 17.3315 10.2558 17.0233L 10.2558 10.2558L 17.0233 10.2558C 17.3315 10.2558 18 9.8372 18 8.99996C 18 8.16272 17.3314 7.74417 17.0231 7.74417Z" fill="white"/>
</g>
</g>
</g>
</g>
</g>
</svg>

