<svg width="18" height="14" viewBox="0 0 18 14" version="1.1" xmlns="http://www.w3.org/2000/svg" xmlns:xlink="http://www.w3.org/1999/xlink">
<g id="Canvas" fill="none">
<g id="checked">
<g id="Vector">
<path d="M 0.207692 7.7C 0.0692308 7.56 0 7.35 0 7.21C 0 7.07 0.0692308 6.86 0.207692 6.72L 1.17692 5.74C 1.45385 5.46 1.86923 5.46 2.14615 5.74L 2.21538 5.81L 6.02308 9.94C 6.16154 10.08 6.36923 10.08 6.50769 9.94L 15.7846 0.21L 15.8538 0.21C 16.1308 -0.07 16.5462 -0.07 16.8231 0.21L 17.7923 1.19C 18.0692 1.47 18.0692 1.89 17.7923 2.17L 6.71538 13.79C 6.57692 13.93 6.43846 14 6.23077 14C 6.02308 14 5.88462 13.93 5.74615 13.79L 0.346154 7.91L 0.207692 7.7Z" fill="white"/>
</g>
</g>
</g>
</svg>

