<svg viewBox="0 0 10 10" version="1.1" xmlns="http://www.w3.org/2000/svg" xmlns:xlink="http://www.w3.org/1999/xlink">
<title>clock</title>
<desc>Created using Figma</desc>
<g id="Canvas" transform="translate(490 363)">
<g id="clock">
<g id="Group">
<g id="Group">
<g id="Vector">
<use xlink:href="#path0_fill" transform="translate(-490 -363)"/>
</g>
<g id="Vector">
<use xlink:href="#path1_fill" transform="translate(-485.309 -361.189)"/>
</g>
</g>
</g>
</g>
</g>
<defs>
<path id="path0_fill" d="M 9.60085 3.05254C 9.07363 1.8227 8.17771 0.928271 6.93828 0.39937C 6.31881 0.135025 5.6698 -3.70297e-11 4.99178 -3.70297e-11C 4.31387 -3.70297e-11 3.66966 0.13375 3.05087 0.39937C 1.8217 0.926865 0.921814 1.82072 0.39366 3.05254C 0.129003 3.66968 0 4.31623 0 4.99451C 0 5.67292 0.129003 6.32483 0.39366 6.9421C 0.921814 8.17391 1.82181 9.07313 3.05087 9.60076C 3.66977 9.86638 4.31386 10 4.99178 10C 5.66971 10 6.31881 9.86497 6.93819 9.60076C 8.17762 9.07184 9.07353 8.17182 9.60087 6.9421C 9.86632 6.32285 10 5.67292 10 4.99451C 10 4.31623 9.86644 3.67177 9.60085 3.05254ZM 8.80268 7.20469C 8.41018 7.87818 7.87247 8.41248 7.19525 8.80752C 6.52212 9.20023 5.78459 9.39828 4.9919 9.39828C 4.39598 9.39828 3.82735 9.28345 3.28601 9.04817C 2.74469 8.81301 2.2773 8.50385 1.88632 8.11277C 1.49534 7.72158 1.18415 7.24937 0.951454 6.70682C 0.719444 6.16624 0.60701 5.59088 0.60701 4.99452C 0.60701 4.20128 0.801797 3.46708 1.19209 2.79546C 1.58377 2.12138 2.1216 1.58651 2.79404 1.19262C 3.46636 0.798739 4.1991 0.601736 4.99178 0.601736C 5.78459 0.601736 6.52199 0.7999 7.19513 1.19262C 7.87235 1.58767 8.40891 2.12252 8.80257 2.79544C 9.19623 3.46824 9.39301 4.20128 9.39301 4.99451C 9.39301 5.78777 9.19752 6.52697 8.80268 7.20469Z"/>
<path id="path1_fill" d="M 0.61786 3.14007L 0.61786 0.306345C 0.61786 0.136774 0.470196 -3.89163e-08 0.300703 -3.89163e-08C 0.14219 -3.89163e-08 -2.11429e-07 0.136774 -2.11429e-07 0.306345L -2.11429e-07 3.18382C -2.11429e-07 3.18932 0.0109642 3.21126 0.0109642 3.22761C 1.23689e-07 3.32609 0.0274181 3.40815 0.0929737 3.47385L 1.72783 5.10949C 1.83722 5.21894 2.03948 5.21894 2.14879 5.10949C 2.27451 4.98368 2.26624 4.80115 2.14879 4.6828L 0.61786 3.14007Z"/>
</defs>
</svg>
