<svg viewBox="0 0 14 14" version="1.1" xmlns="http://www.w3.org/2000/svg" xmlns:xlink="http://www.w3.org/1999/xlink">
<title>playlist</title>
<desc>Created using Figma</desc>
<g id="Canvas" transform="translate(490 278)">
<g id="playlist">
<g id="Group">
<g id="Group">
<g id="Vector">
<use xlink:href="#path0_fill" transform="translate(-484.277 -270.997)" fill-opacity="0.6"/>
</g>
</g>
</g>
<g id="Group">
<g id="Group">
<g id="Vector">
<use xlink:href="#path1_fill" transform="translate(-490 -278)" fill-opacity="0.6"/>
</g>
</g>
</g>
</g>
</g>
<defs>
<path id="path0_fill" d="M 7.66408 0.669998C 6.84753 -0.143861 5.63736 -0.257172 4.8205 0.556688L 4.13792 1.23687L 3.45567 0.556688C 2.63913 -0.257172 1.42895 -0.143543 0.612407 0.669998C -0.204136 1.48386 -0.204136 2.80284 0.612407 3.6167L 0.72601 3.73001L 3.91072 6.90332C 4.03641 7.02873 4.24007 7.02873 4.36577 6.90332L 7.66408 3.6167C 8.48094 2.80284 8.48094 1.48386 7.66408 0.669998ZM 7.20935 3.16346L 6.86822 3.50307L 4.13856 6.22346L 1.06777 3.16346C 0.502622 2.59977 0.502622 1.68661 1.06777 1.12324C 1.5941 0.59902 2.40492 0.415687 3.00126 1.01025L 4.13856 2.14367L 5.27586 1.01025C 5.90084 0.387678 6.68302 0.59902 7.20935 1.12324C 7.7745 1.68692 7.7745 2.60009 7.20935 3.16346Z"/>
<path id="path1_fill" fill-rule="evenodd" d="M 0.318216 0.636573L 9.22827 0.636573C 9.40392 0.636573 9.54648 0.494299 9.54648 0.318287C 9.54648 0.142274 9.40392 -3.55713e-11 9.22827 -3.55713e-11L 0.318216 -3.55713e-11C 0.142561 -3.55713e-11 0 0.142274 0 0.318287C 0 0.494299 0.142561 0.636573 0.318216 0.636573ZM 5.72789 6.36573L 0.318216 6.36573C 0.142561 6.36573 0 6.50801 0 6.68402C 0 6.86003 0.142561 7.00231 0.318216 7.00231L 5.72789 7.00231C 5.90355 7.00231 6.04611 6.86003 6.04611 6.68402C 6.04611 6.50801 5.90355 6.36573 5.72789 6.36573ZM 9.22827 3.18287L 0.318216 3.18287C 0.142561 3.18287 0 3.32514 0 3.50115C 0 3.67717 0.142561 3.81944 0.318216 3.81944L 9.22827 3.81944C 9.40392 3.81944 9.54648 3.67717 9.54648 3.50115C 9.54648 3.32514 9.40392 3.18287 9.22827 3.18287ZM 4.77324 9.5486L 0.318216 9.5486C 0.142561 9.5486 0 9.69088 0 9.86689C 0 10.0429 0.142561 10.1852 0.318216 10.1852L 4.77324 10.1852C 4.9489 10.1852 5.09146 10.0429 5.09146 9.86689C 5.09146 9.69088 4.9489 9.5486 4.77324 9.5486Z"/>
</defs>
</svg>
