<svg viewBox="0 0 12 7" version="1.1" xmlns="http://www.w3.org/2000/svg" xmlns:xlink="http://www.w3.org/1999/xlink">
<title>Group</title>
<desc>Created using Figma</desc>
<g id="Canvas" transform="translate(491 317)">
<g id="Group">
<g id="Vector">
<use xlink:href="#path0_fill" transform="translate(-491 -317)" fill-opacity="0.6"/>
</g>
</g>
</g>
<defs>
<path id="path0_fill" d="M 11.8661 3.0808C 11.241 2.15313 10.4006 1.40774 9.34482 0.844671C 8.28901 0.281578 7.17412 -4.54661e-08 6 -4.54661e-08C 4.82588 -4.54661e-08 3.71095 0.281472 2.65513 0.844671C 1.5993 1.40774 0.758875 2.15313 0.133879 3.0808C 0.0446342 3.22257 0 3.36234 0 3.50011C 0 3.63787 0.0446342 3.77764 0.133879 3.91937C 0.758875 4.84708 1.5993 5.59253 2.65513 6.15548C 3.71095 6.71863 4.82588 7 6 7C 7.17414 7 8.28903 6.71957 9.34482 6.15854C 10.4006 5.59749 11.2412 4.85107 11.8661 3.91937C 11.9554 3.77764 12 3.63794 12 3.50011C 12 3.36234 11.9554 3.22257 11.8661 3.0808ZM 4.56352 1.41885C 4.96305 1.05631 5.44183 0.874979 5.99993 0.874979C 6.08917 0.874979 6.16512 0.903413 6.22765 0.960091C 6.29009 1.01679 6.32147 1.08568 6.32147 1.16669C 6.32147 1.24776 6.29009 1.31661 6.22779 1.37322C 6.16535 1.42998 6.08936 1.45833 6.00009 1.45833C 5.61619 1.45833 5.28796 1.58195 5.01568 1.829C 4.7433 2.07621 4.60719 2.37392 4.60719 2.72229C 4.60719 2.8034 4.57586 2.87221 4.5134 2.92895C 4.45084 2.98573 4.37499 3.01406 4.28572 3.01406C 4.19639 3.01406 4.12051 2.98567 4.05798 2.92895C 3.99543 2.87221 3.96418 2.80331 3.96418 2.72229C 3.96418 2.21596 4.16402 1.78141 4.56352 1.41885ZM 8.90964 5.48418C 8.01452 5.97625 7.04467 6.22243 6 6.22243C 4.95535 6.22243 3.9855 5.9764 3.09043 5.48418C 2.19535 4.99196 1.45093 4.33062 0.857196 3.50011C 1.53576 2.54404 2.3862 1.82898 3.40852 1.35511C 3.13621 1.77635 3.00001 2.23213 3.00001 2.72226C 3.00001 3.47178 3.29359 4.11268 3.88059 4.64547C 4.46759 5.17825 5.17414 5.44453 6 5.44453C 6.82593 5.44453 7.53227 5.1781 8.11941 4.64547C 8.70655 4.11283 9.00001 3.47178 9.00001 2.72226C 9.00001 2.23213 8.86379 1.77628 8.59146 1.35511C 9.61373 1.82898 10.4642 2.5441 11.1428 3.50011C 10.5491 4.33062 9.80476 4.99196 8.90964 5.48418Z"/>
</defs>
</svg>
