<svg width="107" height="14" viewBox="0 0 107 14" version="1.1" xmlns="http://www.w3.org/2000/svg" xmlns:xlink="http://www.w3.org/1999/xlink">
<title>Stars</title>
<desc>Created using Figma</desc>
<g id="Canvas" transform="translate(459 503)">
<g id="Stars">
<g id="star">
<g id="Group">
<g id="Vector">
<use xlink:href="#path0_fill" transform="translate(-459 -503)" fill="#FFFFFF"/>
</g>
</g>
</g>
<g id="star">
<g id="Group">
<g id="Vector">
<use xlink:href="#path1_fill" transform="translate(-435.989 -503)" fill="#FFFFFF"/>
</g>
</g>
</g>
<g id="star">
<g id="Group">
<g id="Vector">
<use xlink:href="#path2_fill" transform="translate(-412.978 -503)" fill="#FFFFFF"/>
</g>
</g>
</g>
<g id="star">
<g id="Group">
<g id="Vector">
<use xlink:href="#path3_fill" transform="translate(-389.968 -503)" fill="#FFFFFF" fill-opacity="0.2"/>
</g>
</g>
</g>
<g id="star">
<g id="Group">
<g id="Vector">
<use xlink:href="#path2_fill" transform="translate(-366.957 -503)" fill="#FFFFFF" fill-opacity="0.2"/>
</g>
</g>
</g>
</g>
</g>
<defs>
<path id="path0_fill" d="M 7.83214 0.230599L 9.73465 4.6504L 14.6053 5.06111C 14.9431 5.08975 15.0806 5.50347 14.8241 5.72125L 11.1297 8.86297L 12.2368 13.5367C 12.3136 13.8615 11.955 14.117 11.6648 13.9444L 7.47897 11.4666L 3.29314 13.9444C 3.00216 14.1162 2.64438 13.8608 2.72116 13.5367L 3.82827 8.86297L 0.133039 5.7205C -0.123393 5.50271 0.0132682 5.08899 0.351851 5.06036L 5.22252 4.64965L 7.12503 0.230599C 7.25709 -0.0768662 7.70009 -0.0768662 7.83214 0.230599Z"/>
<path id="path1_fill" d="M 7.83214 0.230599L 9.73465 4.6504L 14.6053 5.06111C 14.9431 5.08975 15.0806 5.50347 14.8241 5.72125L 11.1297 8.86297L 12.2368 13.5367C 12.3136 13.8615 11.955 14.117 11.6648 13.9444L 7.47897 11.4666L 3.29314 13.9444C 3.00216 14.1162 2.64438 13.8608 2.72116 13.5367L 3.82827 8.86297L 0.133039 5.7205C -0.123393 5.50271 0.0132682 5.08899 0.351851 5.06036L 5.22252 4.64965L 7.12503 0.230599C 7.25709 -0.0768662 7.70009 -0.0768662 7.83214 0.230599Z"/>
<path id="path2_fill" d="M 7.83214 0.230599L 9.73465 4.6504L 14.6053 5.06111C 14.9431 5.08975 15.0806 5.50347 14.8241 5.72125L 11.1297 8.86297L 12.2368 13.5367C 12.3136 13.8615 11.955 14.117 11.6648 13.9444L 7.47897 11.4666L 3.29314 13.9444C 3.00216 14.1162 2.64438 13.8608 2.72116 13.5367L 3.82827 8.86297L 0.133039 5.7205C -0.123393 5.50271 0.0132682 5.08899 0.351851 5.06036L 5.22252 4.64965L 7.12503 0.230599C 7.25709 -0.0768662 7.70009 -0.0768662 7.83214 0.230599Z"/>
<path id="path3_fill" d="M 7.83214 0.230599L 9.73466 4.6504L 14.6053 5.06111C 14.9431 5.08975 15.0806 5.50347 14.8241 5.72125L 11.1297 8.86297L 12.2368 13.5367C 12.3136 13.8615 11.955 14.117 11.6648 13.9444L 7.47897 11.4666L 3.29314 13.9444C 3.00216 14.1162 2.64438 13.8608 2.72116 13.5367L 3.82827 8.86297L 0.133039 5.7205C -0.123393 5.50271 0.0132682 5.08899 0.351851 5.06036L 5.22253 4.64965L 7.12504 0.230599C 7.25709 -0.0768662 7.70009 -0.0768662 7.83214 0.230599Z"/>
</defs>
</svg>
